<svg xmlns="http://www.w3.org/2000/svg" width="1200" height="420" viewBox="0 0 1200 420" role="img" aria-label="MTFLASH UBL Snapdragon v1.5 premium verified update gate">
  <defs>
    <linearGradient id="bg" x1="0" y1="0" x2="1" y2="1">
      <stop offset="0" stop-color="#F8FAFC"/>
      <stop offset="0.55" stop-color="#EEF3F8"/>
      <stop offset="1" stop-color="#F8FAFC"/>
    </linearGradient>
    <linearGradient id="panel" x1="0" y1="0" x2="1" y2="1">
      <stop offset="0" stop-color="#FFFFFF" stop-opacity="0.96"/>
      <stop offset="1" stop-color="#F7FAFD" stop-opacity="0.78"/>
    </linearGradient>
    <linearGradient id="accentLine" x1="0" y1="0" x2="1" y2="0">
      <stop offset="0" stop-color="#FFFFFF" stop-opacity="0"/>
      <stop offset="0.28" stop-color="#0A84FF" stop-opacity="0.54"/>
      <stop offset="0.72" stop-color="#B8841E" stop-opacity="0.52"/>
      <stop offset="1" stop-color="#FFFFFF" stop-opacity="0"/>
    </linearGradient>
    <filter id="shadow" x="-20%" y="-20%" width="140%" height="150%">
      <feDropShadow dx="0" dy="18" stdDeviation="24" flood-color="#64748B" flood-opacity="0.22"/>
    </filter>
    <pattern id="grid" width="38" height="38" patternUnits="userSpaceOnUse">
      <path d="M38 0H0V38" fill="none" stroke="#0F172A" stroke-opacity="0.045"/>
    </pattern>
  </defs>

  <rect width="1200" height="420" rx="34" fill="url(#bg)"/>
  <rect width="1200" height="420" rx="34" fill="url(#grid)"/>
  <path d="M58 78H1126" stroke="url(#accentLine)" stroke-width="1.2"/>
  <path d="M76 344H1110" stroke="url(#accentLine)" stroke-width="1.2" opacity="0.82"/>

  <g transform="translate(76 64)">
    <rect x="0" y="0" width="1048" height="292" rx="28" fill="url(#panel)" stroke="#FFFFFF" stroke-opacity="0.92" filter="url(#shadow)"/>
    <path d="M0 68H1048" stroke="#0F172A" stroke-opacity="0.07"/>
  </g>

  <g transform="translate(104 96)">
    <rect x="0" y="0" width="228" height="36" rx="10" fill="#FFFFFF" stroke="#DDE5EF"/>
    <rect x="13" y="13" width="10" height="10" rx="5" fill="#16A34A"/>
    <text x="36" y="23" fill="#0F172A" font-family="Inter, Segoe UI, Arial, sans-serif" font-size="12" font-weight="800">V1.5 UPDATE GATE</text>

    <text x="0" y="108" fill="#0F172A" font-family="Inter, Segoe UI, Arial, sans-serif" font-size="58" font-weight="850">MTFLASH UBL</text>
    <text x="2" y="154" fill="#334155" font-family="Inter, Segoe UI, Arial, sans-serif" font-size="26" font-weight="760">SILENT VERIFIED UPDATES</text>
    <rect x="2" y="178" width="424" height="3" rx="1.5" fill="#0A84FF"/>
    <text x="0" y="215" fill="#536174" font-family="Inter, Segoe UI, Arial, sans-serif" font-size="17">Premium dark glassmorphism update flow</text>
    <text x="0" y="241" fill="#536174" font-family="Inter, Segoe UI, Arial, sans-serif" font-size="17">shown only when a new verified release exists.</text>

    <g transform="translate(0 280)" font-family="Inter, Segoe UI, Arial, sans-serif" font-size="10" font-weight="800">
      <rect x="0" y="0" width="164" height="30" rx="8" fill="#FFFFFF" stroke="#DDE5EF"/>
      <text x="16" y="20" fill="#263244">HIDDEN WHEN CURRENT</text>
      <rect x="176" y="0" width="148" height="30" rx="8" fill="#FFFFFF" stroke="#DDE5EF"/>
      <text x="193" y="20" fill="#263244">SHA256 VERIFIED</text>
      <rect x="336" y="0" width="132" height="30" rx="8" fill="#FFFFFF" stroke="#DDE5EF"/>
      <text x="356" y="20" fill="#263244">NO DOWNGRADE</text>
    </g>
  </g>

  <g transform="translate(662 92)">
    <rect x="0" y="0" width="424" height="238" rx="20" fill="#F8FAFC" stroke="#DDE5EF"/>
    <rect x="0" y="0" width="424" height="38" rx="20" fill="#EEF3F8"/>
    <path d="M0 38H424" stroke="#DDE5EF"/>
    <circle cx="24" cy="19" r="6" fill="#16A34A"/>
    <circle cx="44" cy="19" r="6" fill="#F59E0B"/>
    <circle cx="64" cy="19" r="6" fill="#EF4444"/>
    <text x="92" y="24" fill="#0F172A" font-family="Inter, Segoe UI, Arial, sans-serif" font-size="12" font-weight="800">MTFLASH Update</text>

    <g transform="translate(28 58)">
      <rect x="0" y="0" width="368" height="154" rx="18" fill="#FFFFFF" fill-opacity="0.88" stroke="#0F172A" stroke-opacity="0.10"/>
      <rect x="18" y="18" width="44" height="44" rx="12" fill="#0A84FF" fill-opacity="0.11" stroke="#0A84FF" stroke-opacity="0.34"/>
      <path d="M40 28v20m0 0l-8-8m8 8l8-8" fill="none" stroke="#0A84FF" stroke-width="2.5" stroke-linecap="round" stroke-linejoin="round"/>
      <text x="78" y="29" fill="#9A6A12" font-family="Inter, Segoe UI, Arial, sans-serif" font-size="9" font-weight="850">MTFLASH UPDATE</text>
      <text x="78" y="53" fill="#0F172A" font-family="Inter, Segoe UI, Arial, sans-serif" font-size="21" font-weight="850">New version available</text>
      <text x="78" y="74" fill="#64748B" font-family="Inter, Segoe UI, Arial, sans-serif" font-size="11">Release v1.5 is being prepared.</text>
      <rect x="282" y="20" width="66" height="24" rx="7" fill="#16A34A" fill-opacity="0.12" stroke="#16A34A" stroke-opacity="0.30"/>
      <text x="298" y="36" fill="#0F172A" font-family="Inter, Segoe UI, Arial, sans-serif" font-size="10" font-weight="800">v1.5</text>

      <g transform="translate(18 92)" font-family="Inter, Segoe UI, Arial, sans-serif">
        <rect x="0" y="0" width="104" height="34" rx="8" fill="#F8FAFC" stroke="#0F172A" stroke-opacity="0.09"/>
        <text x="16" y="14" fill="#0F172A" font-size="10" font-weight="800">Release</text>
        <text x="16" y="27" fill="#64748B" font-size="8" font-weight="700">v1.5</text>
        <rect x="114" y="0" width="112" height="34" rx="8" fill="#F8FAFC" stroke="#0F172A" stroke-opacity="0.09"/>
        <text x="130" y="14" fill="#0F172A" font-size="10" font-weight="800">SHA256</text>
        <text x="130" y="27" fill="#16A34A" font-size="8" font-weight="700">verified</text>
        <rect x="236" y="0" width="114" height="34" rx="8" fill="#F8FAFC" stroke="#0F172A" stroke-opacity="0.09"/>
        <text x="252" y="14" fill="#0F172A" font-size="10" font-weight="800">Install</text>
        <text x="252" y="27" fill="#B8841E" font-size="8" font-weight="700">restart</text>
      </g>
      <rect x="18" y="138" width="332" height="5" rx="2.5" fill="#CBD5E1"/>
      <rect x="18" y="138" width="248" height="5" rx="2.5" fill="#0A84FF"/>
    </g>
  </g>
</svg>
