<svg xmlns="http://www.w3.org/2000/svg" width="1200" height="420" viewBox="0 0 1200 420" role="img" aria-label="MTFLASH UBL Snapdragon v1.3 premium EDL storage interface">
  <defs>
    <linearGradient id="bg" x1="0" y1="0" x2="1" y2="1">
      <stop offset="0" stop-color="#f8fbff"/>
      <stop offset="0.5" stop-color="#edf4ff"/>
      <stop offset="1" stop-color="#ffffff"/>
    </linearGradient>
    <linearGradient id="panel" x1="0" y1="0" x2="1" y2="1">
      <stop offset="0" stop-color="#ffffff" stop-opacity="0.92"/>
      <stop offset="0.52" stop-color="#ffffff" stop-opacity="0.66"/>
      <stop offset="1" stop-color="#ffffff" stop-opacity="0.42"/>
    </linearGradient>
    <linearGradient id="panelStrong" x1="0" y1="0" x2="1" y2="1">
      <stop offset="0" stop-color="#ffffff" stop-opacity="0.96"/>
      <stop offset="1" stop-color="#f4f8ff" stop-opacity="0.90"/>
    </linearGradient>
    <linearGradient id="accent" x1="0" y1="0" x2="1" y2="0">
      <stop offset="0" stop-color="#0078d4"/>
      <stop offset="0.42" stop-color="#6554ff"/>
      <stop offset="0.78" stop-color="#00a875"/>
      <stop offset="1" stop-color="#c77700"/>
    </linearGradient>
    <linearGradient id="shine" x1="0" y1="0" x2="1" y2="0">
      <stop offset="0" stop-color="#ffffff" stop-opacity="0"/>
      <stop offset="0.5" stop-color="#ffffff" stop-opacity="0.58"/>
      <stop offset="1" stop-color="#ffffff" stop-opacity="0"/>
    </linearGradient>
    <pattern id="grid" width="42" height="42" patternUnits="userSpaceOnUse">
      <path d="M42 0H0V42" fill="none" stroke="#1d3557" stroke-opacity="0.045" stroke-width="1"/>
    </pattern>
    <filter id="shadow" x="-20%" y="-20%" width="140%" height="140%">
      <feDropShadow dx="0" dy="20" stdDeviation="24" flood-color="#61708e" flood-opacity="0.24"/>
    </filter>
    <filter id="smallShadow" x="-20%" y="-20%" width="140%" height="140%">
      <feDropShadow dx="0" dy="10" stdDeviation="14" flood-color="#62708b" flood-opacity="0.18"/>
    </filter>
  </defs>

  <rect width="1200" height="420" rx="34" fill="url(#bg)"/>
  <rect width="1200" height="420" rx="34" fill="url(#grid)"/>
  <path d="M74 348C242 262 329 374 491 284C640 201 752 224 900 143C1007 84 1084 92 1140 49" fill="none" stroke="url(#accent)" stroke-width="2.5" opacity="0.20"/>
  <path d="M0 64H1200" stroke="#1d3557" stroke-opacity="0.07"/>
  <path d="M0 356H1200" stroke="#1d3557" stroke-opacity="0.07"/>
  <path d="M103 -22L1234 335" stroke="url(#shine)" stroke-width="72" opacity="0.50"/>

  <rect x="64" y="58" width="1072" height="304" rx="30" fill="url(#panel)" stroke="#ffffff" stroke-opacity="0.92" filter="url(#shadow)"/>
  <rect x="65" y="59" width="1070" height="302" rx="29" fill="none" stroke="#0078d4" stroke-opacity="0.08"/>

  <g transform="translate(96 91)">
    <rect x="0" y="0" width="196" height="42" rx="21" fill="#0078d4" fill-opacity="0.08" stroke="#0078d4" stroke-opacity="0.18"/>
    <rect x="8" y="8" width="26" height="26" rx="13" fill="#00a875" fill-opacity="0.13" stroke="#00a875" stroke-opacity="0.38"/>
    <text x="47" y="27" fill="#0067b8" font-family="Inter, Segoe UI, Arial, sans-serif" font-size="16" font-weight="800" letter-spacing="2">VERSION 1.3</text>

    <text x="0" y="104" fill="#101827" font-family="Inter, Segoe UI, Arial, sans-serif" font-size="56" font-weight="850" letter-spacing="0">MTFLASH UBL</text>
    <text x="2" y="158" fill="#2d3a58" font-family="Inter, Segoe UI, Arial, sans-serif" font-size="34" font-weight="760" letter-spacing="1">SNAPDRAGON</text>
    <rect x="3" y="183" width="456" height="4" rx="2" fill="url(#accent)"/>
    <text x="0" y="222" fill="#536179" font-family="Inter, Segoe UI, Arial, sans-serif" font-size="19" font-weight="520">Professional unlock, EDL, Fastboot, storage safety,</text>
    <text x="0" y="250" fill="#536179" font-family="Inter, Segoe UI, Arial, sans-serif" font-size="19" font-weight="520">firmware, and root workspace for Snapdragon devices.</text>

    <g transform="translate(0 283)">
      <rect x="0" y="0" width="132" height="34" rx="17" fill="#0078d4" fill-opacity="0.10" stroke="#0078d4" stroke-opacity="0.28"/>
      <text x="22" y="22" fill="#0067b8" font-family="Inter, Segoe UI, Arial, sans-serif" font-size="12" font-weight="800">8G3 BUILTIN</text>
      <rect x="145" y="0" width="145" height="34" rx="17" fill="#00a875" fill-opacity="0.10" stroke="#00a875" stroke-opacity="0.28"/>
      <text x="167" y="22" fill="#007c58" font-family="Inter, Segoe UI, Arial, sans-serif" font-size="12" font-weight="800">UFS SAFETY</text>
      <rect x="303" y="0" width="156" height="34" rx="17" fill="#c77700" fill-opacity="0.10" stroke="#c77700" stroke-opacity="0.28"/>
      <text x="325" y="22" fill="#8b5700" font-family="Inter, Segoe UI, Arial, sans-serif" font-size="12" font-weight="800">KIOXIA BLOCK</text>
    </g>
  </g>

  <g transform="translate(642 86)" filter="url(#smallShadow)">
    <rect x="0" y="0" width="444" height="248" rx="26" fill="url(#panelStrong)" stroke="#ffffff" stroke-opacity="0.95"/>
    <rect x="0" y="0" width="444" height="48" rx="26" fill="#0d6efd" fill-opacity="0.045"/>
    <path d="M0 48H444" stroke="#1d3557" stroke-opacity="0.10"/>
    <circle cx="26" cy="24" r="7" fill="#00a875"/>
    <circle cx="48" cy="24" r="7" fill="#c77700"/>
    <circle cx="70" cy="24" r="7" fill="#dc3545"/>
    <text x="94" y="30" fill="#101827" font-family="Inter, Segoe UI, Arial, sans-serif" font-size="15" font-weight="800">EDL Flash - Storage Intelligence</text>

    <g transform="translate(24 70)">
      <rect x="0" y="0" width="126" height="154" rx="18" fill="#ffffff" fill-opacity="0.64" stroke="#dfe8f5" stroke-opacity="1"/>
      <rect x="14" y="16" width="98" height="28" rx="14" fill="#0078d4" fill-opacity="0.92"/>
      <text x="32" y="35" fill="#ffffff" font-family="Inter, Segoe UI, Arial, sans-serif" font-size="12" font-weight="850">CHECK</text>
      <rect x="14" y="58" width="98" height="26" rx="13" fill="#f5f8fd" stroke="#dfe8f5"/>
      <text x="35" y="76" fill="#536179" font-family="Inter, Segoe UI, Arial, sans-serif" font-size="11" font-weight="700">ROM XML</text>
      <rect x="14" y="98" width="98" height="26" rx="13" fill="#f5f8fd" stroke="#dfe8f5"/>
      <text x="39" y="116" fill="#536179" font-family="Inter, Segoe UI, Arial, sans-serif" font-size="11" font-weight="700">DEVPRG</text>
      <text x="14" y="143" fill="#00885f" font-family="Inter, Segoe UI, Arial, sans-serif" font-size="10" font-weight="800">SK hynix - 509.2 GB</text>
    </g>

    <g transform="translate(174 70)">
      <rect x="0" y="0" width="238" height="154" rx="18" fill="#ffffff" fill-opacity="0.74" stroke="#dfe8f5" stroke-opacity="1"/>
      <text x="18" y="29" fill="#101827" font-family="Inter, Segoe UI, Arial, sans-serif" font-size="18" font-weight="830">UFS Storage Profile</text>
      <text x="18" y="54" fill="#637083" font-family="Inter, Segoe UI, Arial, sans-serif" font-size="12" font-weight="700">HN8T274EJKX130</text>
      <rect x="18" y="74" width="92" height="30" rx="15" fill="#00a875" fill-opacity="0.10" stroke="#00a875" stroke-opacity="0.30"/>
      <text x="39" y="94" fill="#007c58" font-family="Inter, Segoe UI, Arial, sans-serif" font-size="12" font-weight="850">SAFE</text>
      <rect x="122" y="74" width="92" height="30" rx="15" fill="#0078d4" fill-opacity="0.10" stroke="#0078d4" stroke-opacity="0.30"/>
      <text x="144" y="94" fill="#0067b8" font-family="Inter, Segoe UI, Arial, sans-serif" font-size="12" font-weight="850">6 LUN</text>
      <path d="M18 121H214" stroke="#1d3557" stroke-opacity="0.10"/>
      <text x="18" y="143" fill="#536179" font-family="Inter, Segoe UI, Arial, sans-serif" font-size="13" font-weight="680">Capacity 509.2 GB - FW 104</text>
    </g>
  </g>
</svg>
